<?xml version="1.0" encoding="utf-8"?>
<svg xmlns="http://www.w3.org/2000/svg" viewBox="0 0 512 512">
    <polygon points="160,32 32,32 32,160 0,160 0,0 160,0" fill="#0000BF"/>
    <polygon points="480,160 480,32 352,32 352,0 512,0 512,160" fill="#0000BF"/>
    <polygon points="352,480 480,480 480,352 512,352 512,512 352,512" fill="#0000BF"/>
    <polygon points="32,352 32,480 160,480 160,512 0,512 0,352" fill="#0000BF"/>
    <path d="m34.55556,34.55556l442.88889,0l0,442.88889l-442.88889,0l0,-442.88889z" fill="#fff"/>
    <g transform="matrix(0.8650173564714918,0,0,0.8650173564714918,-1737.9999013694396,-1737.9999013694396)" stroke-width="0.894">
        <path fill="#000" d="m2219.30193,2076.21193l-143.1,0l0,143.1l143.1,0l0,-143.1zm-28.618,114.472l-85.854,0l0,-85.854l85.854,0l0,85.854zm-57.236,-57.236l28.608,0l0,28.608l-28.608,0l0,-28.608zm257.562,-57.236l0,143.1l143.1,0l0,-143.1l-143.1,0zm114.472,114.472l-85.854,0l0,-85.854l85.854,0l0,85.854zm-57.226,-57.236l28.618,0l0,28.608l-28.618,0l0,-28.608zm-372.044,400.652l143.1,0l0,-143.1l-143.1,0l0,143.1zm28.618,-114.472l85.854,0l0,85.854l-85.854,0l0,-85.854zm28.618,28.628l28.608,0l0,28.618l-28.608,0l0,-28.618zm171.708,-372.044l57.236,0l0,28.618l-57.236,0l0,-28.618zm0,114.472l28.618,0l0,-28.628l28.618,0l0,-28.608l-85.854,0l0,-28.618l-28.618,0l0,57.226l57.236,0l0,28.628z"/>
        <path fill="#000" d="m2247.91993,2190.68393l28.618,0l0,28.618l-28.618,0l0,-28.618zm114.472,28.618l-28.618,0l0,28.618l-85.854,0l0,28.618l114.472,0l0,-57.236zm-257.562,114.472l28.618,0l0,-28.618l-28.618,0l0,-57.236l-28.618,0l0,114.472l28.618,0l0,-28.618zm28.618,-85.854l28.608,0l0,28.618l-28.608,0l0,-28.618zm114.472,114.472l57.236,0l0,-28.618l-28.618,0l0,-28.618l-57.236,0l0,-57.236l-28.618,0l0,57.236l-28.628,0l0,57.236l28.618,0l0,-28.618l57.236,0l0.01,28.618zm85.854,-57.236l28.618,0l0,57.236l-28.618,0l0,-57.236zm0,85.854l-85.854,0l0,28.618l57.236,0l0,85.854l-57.236,0l0,28.618l85.854,0l0,-28.618l57.236,0l0,-28.618l-57.236,0l0,-85.854zm-85.854,57.246l28.618,0l0,28.618l-28.618,0l0,-28.618zm114.472,-57.246l28.618,0l0,57.246l-28.618,0l0,-57.246zm143.1,57.246l-85.854,0l0,85.854l28.618,0l0,-57.236l57.236,0l0,-28.618zm-28.618,57.226l57.236,0l0,28.618l-57.236,0l0,-28.618zm28.618,-114.472l28.618,0l0,28.618l-28.618,0l0,-28.618zm-85.854,28.618l28.618,0l0,-85.854l-57.236,0l0,28.618l28.618,0l0,57.236zm57.236,-143.1l-28.618,0l0,-28.618l-28.618,0l0,28.618l-28.618,0l0,28.628l114.472,0l0,-28.618l28.618,0l0,-28.618l-57.236,0l0,28.608zm0,57.236l57.236,0l0,28.618l-57.236,0l0,-28.618z"/>
    </g>
</svg>